<mxfile host="app.diagrams.net" modified="2023-05-09T23:32:36.851Z" agent="Mozilla/5.0 (Macintosh; Intel Mac OS X 10_15_7) AppleWebKit/537.36 (KHTML, like Gecko) Chrome/109.0.0.0 Safari/537.36" etag="tebnG1-zhPeMOg_IxEm3" version="21.1.1" type="device">
  <diagram name="Page-1" id="MhgmXtjhc3cd_hfltaVi">
    <mxGraphModel dx="1434" dy="714" grid="1" gridSize="10" guides="1" tooltips="1" connect="1" arrows="1" fold="1" page="1" pageScale="1" pageWidth="850" pageHeight="1100" math="0" shadow="0">
      <root>
        <mxCell id="0" />
        <mxCell id="1" parent="0" />
        <mxCell id="0s0HrwULgu3M44zGhDH9-1" value="" style="rounded=1;whiteSpace=wrap;html=1;" vertex="1" parent="1">
          <mxGeometry x="110" y="110" width="670" height="610" as="geometry" />
        </mxCell>
        <mxCell id="0s0HrwULgu3M44zGhDH9-2" value="" style="rounded=1;whiteSpace=wrap;html=1;" vertex="1" parent="1">
          <mxGeometry x="160" y="290" width="560" height="370" as="geometry" />
        </mxCell>
        <mxCell id="0s0HrwULgu3M44zGhDH9-3" value="" style="rounded=1;whiteSpace=wrap;html=1;" vertex="1" parent="1">
          <mxGeometry x="160" y="150" width="560" height="120" as="geometry" />
        </mxCell>
        <mxCell id="0s0HrwULgu3M44zGhDH9-4" value="" style="rounded=0;whiteSpace=wrap;html=1;" vertex="1" parent="1">
          <mxGeometry x="230" y="170" width="130" height="80" as="geometry" />
        </mxCell>
      </root>
    </mxGraphModel>
  </diagram>
</mxfile>
